<svg width="68" height="69" viewBox="0 0 68 69" fill="none" xmlns="http://www.w3.org/2000/svg">
<rect y="0.5" width="68" height="68" rx="34" fill="#E79E03" fill-opacity="0.15"/>
<path d="M34 23.14L30.23 25.5H27V27.5L24.97 28.79C24.39 29.14 24 29.77 24 30.5V40.5C24 41.0304 24.2107 41.5391 24.5858 41.9142C24.9609 42.2893 25.4696 42.5 26 42.5H42C43.11 42.5 44 41.61 44 40.5V30.5C44 29.77 43.61 29.14 43.03 28.79L41 27.5V25.5H37.77M29 27.5H39V32.38L34 35.5L29 32.38M30 28.5V30H38V28.5M27 29.88V31.13L26 30.5M41 29.88L42 30.5L41 31.13M30 31V32.5H38V31H30Z" fill="#E79E03"/>
</svg>
