<svg width="64" height="65" viewBox="0 0 64 65" fill="none" xmlns="http://www.w3.org/2000/svg">
<rect y="0.5" width="64" height="64" rx="32" fill="#B70E0E" fill-opacity="0.15"/>
<path d="M32 20.5C25.3726 20.5 20 25.8726 20 32.5C20 39.1274 25.3726 44.5 32 44.5C38.6274 44.5 44 39.1274 44 32.5C44 25.8726 38.6274 20.5 32 20.5ZM32 22.8226C37.3483 22.8226 41.6774 27.1509 41.6774 32.5C41.6774 37.8483 37.3491 42.1774 32 42.1774C26.6517 42.1774 22.3226 37.8491 22.3226 32.5C22.3226 27.1517 26.6509 22.8226 32 22.8226ZM38.7841 29.1258L37.6936 28.0266C37.4678 27.7989 37.1001 27.7974 36.8725 28.0233L30.0329 34.8079L27.1397 31.8913C26.9139 31.6636 26.5462 31.6621 26.3186 31.888L25.2193 32.9784C24.9916 33.2042 24.9901 33.5719 25.216 33.7996L29.6086 38.2278C29.8344 38.4554 30.2021 38.4569 30.4297 38.2311L38.7808 29.947C39.0084 29.7211 39.0099 29.3535 38.7841 29.1258Z" fill="#B70E0E"/>
</svg>
