<svg width="64" height="65" viewBox="0 0 64 65" fill="none" xmlns="http://www.w3.org/2000/svg">
<rect y="0.5" width="64" height="64" rx="32" fill="#067811" fill-opacity="0.15"/>
<path d="M44 32.5C44 39.1274 38.6274 44.5 32 44.5C25.3726 44.5 20 39.1274 20 32.5C20 25.8726 25.3726 20.5 32 20.5C38.6274 20.5 44 25.8726 44 32.5ZM30.612 38.8539L39.5152 29.9507C39.8175 29.6484 39.8175 29.1581 39.5152 28.8558L38.4203 27.761C38.118 27.4586 37.6278 27.4586 37.3254 27.761L30.0645 35.0218L26.6746 31.6319C26.3722 31.3296 25.882 31.3296 25.5797 31.6319L24.4848 32.7267C24.1825 33.0291 24.1825 33.5193 24.4848 33.8216L29.5171 38.8539C29.8194 39.1562 30.3096 39.1562 30.612 38.8539Z" fill="#067811"/>
</svg>
