<svg width="235" height="225" viewBox="0 0 235 225" fill="none" xmlns="http://www.w3.org/2000/svg">
<rect width="187" height="187" transform="translate(24 16)" fill="white"/>
<path d="M95.1564 98.454C95.2444 98.454 95.3224 98.488 95.3904 98.556L96.0264 99.246C95.6744 99.682 95.2404 100.016 94.7244 100.248C94.2124 100.48 93.5964 100.596 92.8764 100.596C92.2324 100.596 91.6524 100.486 91.1364 100.266C90.6244 100.046 90.1864 99.74 89.8224 99.348C89.4584 98.956 89.1784 98.488 88.9824 97.944C88.7904 97.4 88.6944 96.806 88.6944 96.162C88.6944 95.51 88.7984 94.914 89.0064 94.374C89.2144 93.83 89.5064 93.362 89.8824 92.97C90.2624 92.578 90.7144 92.274 91.2384 92.058C91.7624 91.838 92.3424 91.728 92.9784 91.728C93.6104 91.728 94.1704 91.832 94.6584 92.04C95.1504 92.248 95.5684 92.52 95.9124 92.856L95.3724 93.606C95.3404 93.654 95.2984 93.696 95.2464 93.732C95.1984 93.768 95.1304 93.786 95.0424 93.786C94.9824 93.786 94.9204 93.77 94.8564 93.738C94.7924 93.702 94.7224 93.66 94.6464 93.612C94.5704 93.56 94.4824 93.504 94.3824 93.444C94.2824 93.384 94.1664 93.33 94.0344 93.282C93.9024 93.23 93.7484 93.188 93.5724 93.156C93.4004 93.12 93.2004 93.102 92.9724 93.102C92.5844 93.102 92.2284 93.172 91.9044 93.312C91.5844 93.448 91.3084 93.648 91.0764 93.912C90.8444 94.172 90.6644 94.492 90.5364 94.872C90.4084 95.248 90.3444 95.678 90.3444 96.162C90.3444 96.65 90.4124 97.084 90.5484 97.464C90.6884 97.844 90.8764 98.164 91.1124 98.424C91.3484 98.684 91.6264 98.884 91.9464 99.024C92.2664 99.16 92.6104 99.228 92.9784 99.228C93.1984 99.228 93.3964 99.216 93.5724 99.192C93.7524 99.168 93.9164 99.13 94.0644 99.078C94.2164 99.026 94.3584 98.96 94.4904 98.88C94.6264 98.796 94.7604 98.694 94.8924 98.574C94.9324 98.538 94.9744 98.51 95.0184 98.49C95.0624 98.466 95.1084 98.454 95.1564 98.454ZM99.4931 94.248C99.9491 94.248 100.363 94.322 100.735 94.47C101.111 94.618 101.431 94.828 101.695 95.1C101.963 95.372 102.169 95.704 102.313 96.096C102.457 96.488 102.529 96.926 102.529 97.41C102.529 97.898 102.457 98.338 102.313 98.73C102.169 99.122 101.963 99.456 101.695 99.732C101.431 100.008 101.111 100.22 100.735 100.368C100.363 100.516 99.9491 100.59 99.4931 100.59C99.0331 100.59 98.6151 100.516 98.2391 100.368C97.8631 100.22 97.5411 100.008 97.2731 99.732C97.0091 99.456 96.8031 99.122 96.6551 98.73C96.5111 98.338 96.4391 97.898 96.4391 97.41C96.4391 96.926 96.5111 96.488 96.6551 96.096C96.8031 95.704 97.0091 95.372 97.2731 95.1C97.5411 94.828 97.8631 94.618 98.2391 94.47C98.6151 94.322 99.0331 94.248 99.4931 94.248ZM99.4931 99.45C100.005 99.45 100.383 99.278 100.627 98.934C100.875 98.59 100.999 98.086 100.999 97.422C100.999 96.758 100.875 96.252 100.627 95.904C100.383 95.556 100.005 95.382 99.4931 95.382C98.9731 95.382 98.5871 95.558 98.3351 95.91C98.0871 96.258 97.9631 96.762 97.9631 97.422C97.9631 98.082 98.0871 98.586 98.3351 98.934C98.5871 99.278 98.9731 99.45 99.4931 99.45ZM103.66 100.5V94.344H104.566C104.758 94.344 104.884 94.434 104.944 94.614L105.04 95.07C105.148 94.95 105.26 94.84 105.376 94.74C105.496 94.64 105.622 94.554 105.754 94.482C105.89 94.41 106.034 94.354 106.186 94.314C106.342 94.27 106.512 94.248 106.696 94.248C107.084 94.248 107.402 94.354 107.65 94.566C107.902 94.774 108.09 95.052 108.214 95.4C108.31 95.196 108.43 95.022 108.574 94.878C108.718 94.73 108.876 94.61 109.048 94.518C109.22 94.426 109.402 94.358 109.594 94.314C109.79 94.27 109.986 94.248 110.182 94.248C110.522 94.248 110.824 94.3 111.088 94.404C111.352 94.508 111.574 94.66 111.754 94.86C111.934 95.06 112.07 95.304 112.162 95.592C112.258 95.88 112.306 96.21 112.306 96.582V100.5H110.824V96.582C110.824 96.19 110.738 95.896 110.566 95.7C110.394 95.5 110.142 95.4 109.81 95.4C109.658 95.4 109.516 95.426 109.384 95.478C109.256 95.53 109.142 95.606 109.042 95.706C108.946 95.802 108.87 95.924 108.814 96.072C108.758 96.22 108.73 96.39 108.73 96.582V100.5H107.242V96.582C107.242 96.17 107.158 95.87 106.99 95.682C106.826 95.494 106.584 95.4 106.264 95.4C106.048 95.4 105.846 95.454 105.658 95.562C105.474 95.666 105.302 95.81 105.142 95.994V100.5H103.66ZM115.196 98.904C115.364 99.108 115.546 99.252 115.742 99.336C115.942 99.42 116.158 99.462 116.39 99.462C116.614 99.462 116.816 99.42 116.996 99.336C117.176 99.252 117.328 99.124 117.452 98.952C117.58 98.78 117.678 98.564 117.746 98.304C117.814 98.04 117.848 97.73 117.848 97.374C117.848 97.014 117.818 96.71 117.758 96.462C117.702 96.21 117.62 96.006 117.512 95.85C117.404 95.694 117.272 95.58 117.116 95.508C116.964 95.436 116.79 95.4 116.594 95.4C116.286 95.4 116.024 95.466 115.808 95.598C115.592 95.726 115.388 95.908 115.196 96.144V98.904ZM115.118 95.184C115.37 94.9 115.656 94.67 115.976 94.494C116.296 94.318 116.672 94.23 117.104 94.23C117.44 94.23 117.746 94.3 118.022 94.44C118.302 94.58 118.542 94.784 118.742 95.052C118.946 95.316 119.102 95.644 119.21 96.036C119.322 96.424 119.378 96.87 119.378 97.374C119.378 97.834 119.316 98.26 119.192 98.652C119.068 99.044 118.89 99.384 118.658 99.672C118.43 99.96 118.152 100.186 117.824 100.35C117.5 100.51 117.136 100.59 116.732 100.59C116.388 100.59 116.094 100.538 115.85 100.434C115.606 100.326 115.388 100.178 115.196 99.99V102.51H113.714V94.344H114.62C114.812 94.344 114.938 94.434 114.998 94.614L115.118 95.184ZM122.035 91.584V100.5H120.553V91.584H122.035ZM127.477 96.714C127.477 96.522 127.449 96.342 127.393 96.174C127.341 96.002 127.261 95.852 127.153 95.724C127.045 95.596 126.907 95.496 126.739 95.424C126.575 95.348 126.383 95.31 126.163 95.31C125.735 95.31 125.397 95.432 125.149 95.676C124.905 95.92 124.749 96.266 124.681 96.714H127.477ZM124.651 97.608C124.675 97.924 124.731 98.198 124.819 98.43C124.907 98.658 125.023 98.848 125.167 99C125.311 99.148 125.481 99.26 125.677 99.336C125.877 99.408 126.097 99.444 126.337 99.444C126.577 99.444 126.783 99.416 126.955 99.36C127.131 99.304 127.283 99.242 127.411 99.174C127.543 99.106 127.657 99.044 127.753 98.988C127.853 98.932 127.949 98.904 128.041 98.904C128.165 98.904 128.257 98.95 128.317 99.042L128.743 99.582C128.579 99.774 128.395 99.936 128.191 100.068C127.987 100.196 127.773 100.3 127.549 100.38C127.329 100.456 127.103 100.51 126.871 100.542C126.643 100.574 126.421 100.59 126.205 100.59C125.777 100.59 125.379 100.52 125.011 100.38C124.643 100.236 124.323 100.026 124.051 99.75C123.779 99.47 123.565 99.126 123.409 98.718C123.253 98.306 123.175 97.83 123.175 97.29C123.175 96.87 123.243 96.476 123.379 96.108C123.515 95.736 123.709 95.414 123.961 95.142C124.217 94.866 124.527 94.648 124.891 94.488C125.259 94.328 125.673 94.248 126.133 94.248C126.521 94.248 126.879 94.31 127.207 94.434C127.535 94.558 127.817 94.74 128.053 94.98C128.289 95.216 128.473 95.508 128.605 95.856C128.741 96.2 128.809 96.594 128.809 97.038C128.809 97.262 128.785 97.414 128.737 97.494C128.689 97.57 128.597 97.608 128.461 97.608H124.651ZM131.915 100.596C131.379 100.596 130.967 100.446 130.679 100.146C130.395 99.842 130.253 99.424 130.253 98.892V95.454H129.623C129.543 95.454 129.475 95.428 129.419 95.376C129.363 95.324 129.335 95.246 129.335 95.142V94.554L130.325 94.392L130.637 92.712C130.657 92.632 130.695 92.57 130.751 92.526C130.807 92.482 130.879 92.46 130.967 92.46H131.735V94.398H133.379V95.454H131.735V98.79C131.735 98.982 131.781 99.132 131.873 99.24C131.969 99.348 132.099 99.402 132.263 99.402C132.355 99.402 132.431 99.392 132.491 99.372C132.555 99.348 132.609 99.324 132.653 99.3C132.701 99.276 132.743 99.254 132.779 99.234C132.815 99.21 132.851 99.198 132.887 99.198C132.931 99.198 132.967 99.21 132.995 99.234C133.023 99.254 133.053 99.286 133.085 99.33L133.529 100.05C133.313 100.23 133.065 100.366 132.785 100.458C132.505 100.55 132.215 100.596 131.915 100.596ZM138.247 96.714C138.247 96.522 138.219 96.342 138.163 96.174C138.111 96.002 138.031 95.852 137.923 95.724C137.815 95.596 137.677 95.496 137.509 95.424C137.345 95.348 137.153 95.31 136.933 95.31C136.505 95.31 136.167 95.432 135.919 95.676C135.675 95.92 135.519 96.266 135.451 96.714H138.247ZM135.421 97.608C135.445 97.924 135.501 98.198 135.589 98.43C135.677 98.658 135.793 98.848 135.937 99C136.081 99.148 136.251 99.26 136.447 99.336C136.647 99.408 136.867 99.444 137.107 99.444C137.347 99.444 137.553 99.416 137.725 99.36C137.901 99.304 138.053 99.242 138.181 99.174C138.313 99.106 138.427 99.044 138.523 98.988C138.623 98.932 138.719 98.904 138.811 98.904C138.935 98.904 139.027 98.95 139.087 99.042L139.513 99.582C139.349 99.774 139.165 99.936 138.961 100.068C138.757 100.196 138.543 100.3 138.319 100.38C138.099 100.456 137.873 100.51 137.641 100.542C137.413 100.574 137.191 100.59 136.975 100.59C136.547 100.59 136.149 100.52 135.781 100.38C135.413 100.236 135.093 100.026 134.821 99.75C134.549 99.47 134.335 99.126 134.179 98.718C134.023 98.306 133.945 97.83 133.945 97.29C133.945 96.87 134.013 96.476 134.149 96.108C134.285 95.736 134.479 95.414 134.731 95.142C134.987 94.866 135.297 94.648 135.661 94.488C136.029 94.328 136.443 94.248 136.903 94.248C137.291 94.248 137.649 94.31 137.977 94.434C138.305 94.558 138.587 94.74 138.823 94.98C139.059 95.216 139.243 95.508 139.375 95.856C139.511 96.2 139.579 96.594 139.579 97.038C139.579 97.262 139.555 97.414 139.507 97.494C139.459 97.57 139.367 97.608 139.231 97.608H135.421ZM144.555 95.916C144.387 95.712 144.203 95.568 144.003 95.484C143.807 95.4 143.595 95.358 143.367 95.358C143.143 95.358 142.941 95.4 142.761 95.484C142.581 95.568 142.427 95.696 142.299 95.868C142.171 96.036 142.073 96.252 142.005 96.516C141.937 96.776 141.903 97.084 141.903 97.44C141.903 97.8 141.931 98.106 141.987 98.358C142.047 98.606 142.131 98.81 142.239 98.97C142.347 99.126 142.479 99.24 142.635 99.312C142.791 99.38 142.965 99.414 143.157 99.414C143.465 99.414 143.727 99.35 143.943 99.222C144.159 99.094 144.363 98.912 144.555 98.676V95.916ZM146.037 91.584V100.5H145.131C144.935 100.5 144.811 100.41 144.759 100.23L144.633 99.636C144.385 99.92 144.099 100.15 143.775 100.326C143.455 100.502 143.081 100.59 142.653 100.59C142.317 100.59 142.009 100.52 141.729 100.38C141.449 100.24 141.207 100.038 141.003 99.774C140.803 99.506 140.647 99.176 140.535 98.784C140.427 98.392 140.373 97.944 140.373 97.44C140.373 96.984 140.435 96.56 140.559 96.168C140.683 95.776 140.861 95.436 141.093 95.148C141.325 94.86 141.603 94.636 141.927 94.476C142.251 94.312 142.615 94.23 143.019 94.23C143.363 94.23 143.657 94.284 143.901 94.392C144.145 94.5 144.363 94.646 144.555 94.83V91.584H146.037Z" fill="#737373"/>
<path d="M109.258 112.281V113.795L103.76 126.5H100.791L106.289 114.479H99.209V112.281H109.258ZM120.742 112.281V113.795L115.244 126.5H112.275L117.773 114.479H110.693V112.281H120.742ZM122.529 115.768V115.016C122.529 114.475 122.646 113.984 122.881 113.541C123.115 113.098 123.46 112.743 123.916 112.477C124.372 112.21 124.932 112.076 125.596 112.076C126.279 112.076 126.849 112.21 127.305 112.477C127.767 112.743 128.112 113.098 128.34 113.541C128.574 113.984 128.691 114.475 128.691 115.016V115.768C128.691 116.295 128.574 116.78 128.34 117.223C128.112 117.665 127.77 118.02 127.314 118.287C126.859 118.554 126.296 118.688 125.625 118.688C124.948 118.688 124.378 118.554 123.916 118.287C123.46 118.02 123.115 117.665 122.881 117.223C122.646 116.78 122.529 116.295 122.529 115.768ZM124.395 115.016V115.768C124.395 115.995 124.437 116.214 124.521 116.422C124.613 116.624 124.749 116.79 124.932 116.92C125.12 117.044 125.348 117.105 125.615 117.105C125.895 117.105 126.123 117.044 126.299 116.92C126.475 116.79 126.605 116.624 126.689 116.422C126.774 116.214 126.816 115.995 126.816 115.768V115.016C126.816 114.775 126.771 114.553 126.68 114.352C126.595 114.143 126.462 113.977 126.279 113.854C126.104 113.723 125.876 113.658 125.596 113.658C125.335 113.658 125.114 113.723 124.932 113.854C124.749 113.977 124.613 114.143 124.521 114.352C124.437 114.553 124.395 114.775 124.395 115.016ZM129.326 123.766V123.014C129.326 122.48 129.443 121.992 129.678 121.549C129.919 121.106 130.267 120.751 130.723 120.484C131.185 120.217 131.751 120.084 132.422 120.084C133.099 120.084 133.665 120.217 134.121 120.484C134.577 120.751 134.922 121.106 135.156 121.549C135.391 121.992 135.508 122.48 135.508 123.014V123.766C135.508 124.299 135.391 124.788 135.156 125.23C134.928 125.673 134.587 126.028 134.131 126.295C133.675 126.562 133.112 126.695 132.441 126.695C131.764 126.695 131.195 126.562 130.732 126.295C130.27 126.028 129.919 125.673 129.678 125.23C129.443 124.788 129.326 124.299 129.326 123.766ZM131.201 123.014V123.766C131.201 124 131.253 124.221 131.357 124.43C131.462 124.638 131.605 124.804 131.787 124.928C131.976 125.051 132.194 125.113 132.441 125.113C132.754 125.113 132.998 125.051 133.174 124.928C133.35 124.804 133.47 124.638 133.535 124.43C133.607 124.221 133.643 124 133.643 123.766V123.014C133.643 122.779 133.597 122.561 133.506 122.359C133.415 122.151 133.278 121.985 133.096 121.861C132.92 121.731 132.695 121.666 132.422 121.666C132.148 121.666 131.921 121.731 131.738 121.861C131.562 121.985 131.429 122.151 131.338 122.359C131.247 122.561 131.201 122.779 131.201 123.014ZM133.115 114.312L126.172 125.426L124.805 124.703L131.748 113.59L133.115 114.312Z" fill="#0A0A0A"/>
<path d="M211 109.5C211 161.139 169.139 203 117.5 203C65.8614 203 24 161.139 24 109.5C24 57.8614 65.8614 16 117.5 16C169.139 16 211 57.8614 211 109.5ZM42.7 109.5C42.7 150.811 76.1891 184.3 117.5 184.3C158.811 184.3 192.3 150.811 192.3 109.5C192.3 68.1891 158.811 34.7 117.5 34.7C76.1891 34.7 42.7 68.1891 42.7 109.5Z" fill="#F5F5F5"/>
<path d="M117.5 16C135.993 16 154.07 21.4837 169.446 31.7576C184.822 42.0315 196.806 56.6342 203.883 73.7191C210.96 90.804 212.811 109.604 209.203 127.741C205.596 145.878 196.691 162.538 183.614 175.614C170.538 188.691 153.878 197.596 135.741 201.203C117.604 204.811 98.804 202.96 81.7191 195.883C64.6342 188.806 50.0315 176.822 39.7576 161.446C29.4837 146.07 24 127.993 24 109.5H42.7C42.7 124.294 47.0869 138.756 55.3061 151.057C63.5252 163.357 75.2074 172.945 88.8753 178.606C102.543 184.268 117.583 185.749 132.093 182.863C146.603 179.977 159.931 172.853 170.392 162.392C180.853 151.931 187.977 138.603 190.863 124.093C193.749 109.583 192.268 94.5432 186.606 80.8753C180.945 67.2074 171.357 55.5252 159.057 47.3061C146.756 39.0869 132.294 34.7 117.5 34.7V16Z" fill="url(#paint0_linear_402_415)"/>
<defs>
<linearGradient id="paint0_linear_402_415" x1="24" y1="110.39" x2="211" y2="110.39" gradientUnits="userSpaceOnUse">
<stop stop-color="#A855F7"/>
<stop offset="1" stop-color="#3B82F6"/>
</linearGradient>
</defs>
</svg>
