<svg width="100" height="100" viewBox="0 0 100 100" fill="none" xmlns="http://www.w3.org/2000/svg">
<path d="M43.7375 15.625C43.7375 19.769 42.0913 23.7433 39.161 26.6735C36.2308 29.6038 32.2565 31.25 28.1125 31.25C23.9685 31.25 19.9942 29.6038 17.064 26.6735C14.1337 23.7433 12.4875 19.769 12.4875 15.625C12.4875 11.481 14.1337 7.50671 17.064 4.57646C19.9942 1.6462 23.9685 0 28.1125 0C32.2565 0 36.2308 1.6462 39.161 4.57646C42.0913 7.50671 43.7375 11.481 43.7375 15.625ZM70.1438 40.9562C69.5576 40.6626 68.894 40.5608 68.2469 40.6651C67.5997 40.7694 67.0017 41.0746 66.5375 41.5375L43.35 70.975L26.725 53.65C26.1248 53.2504 25.4048 53.0706 24.6871 53.1413C23.9695 53.2119 23.2983 53.5285 22.7875 54.0375L0 81.25V93.75C0 95.4076 0.65848 96.9973 1.83058 98.1694C3.00268 99.3415 4.5924 100 6.25 100H93.75C94.5708 100 95.3835 99.8383 96.1418 99.5242C96.9001 99.2102 97.5891 98.7498 98.1694 98.1694C98.7498 97.5891 99.2102 96.9001 99.5242 96.1418C99.8383 95.3835 100 94.5708 100 93.75V65.625L70.1438 40.9562Z" fill="#848484"/>
</svg>
