<svg width="31" height="30" viewBox="0 0 31 30" fill="none" xmlns="http://www.w3.org/2000/svg">
<path d="M15.4805 13.125C16.516 13.125 17.3555 12.2855 17.3555 11.25C17.3555 10.2145 16.516 9.375 15.4805 9.375C14.4449 9.375 13.6055 10.2145 13.6055 11.25C13.6055 12.2855 14.4449 13.125 15.4805 13.125Z" fill="#FDB833"/>
<path d="M15.4805 1.875C10.3113 1.875 6.10547 5.89746 6.10547 10.8398C6.10547 13.1936 7.17832 16.3236 9.29414 20.1434C10.9934 23.2102 12.9592 25.9834 13.9816 27.3633C14.1544 27.5991 14.3803 27.7908 14.641 27.923C14.9017 28.0551 15.1899 28.124 15.4822 28.124C15.7745 28.124 16.0627 28.0551 16.3234 27.923C16.5841 27.7908 16.81 27.5991 16.9828 27.3633C18.0035 25.9834 19.9711 23.2102 21.6703 20.1434C23.7826 16.3248 24.8555 13.1947 24.8555 10.8398C24.8555 5.89746 20.6496 1.875 15.4805 1.875ZM15.4805 15C14.7388 15 14.0138 14.7801 13.3971 14.368C12.7804 13.956 12.2997 13.3703 12.0159 12.6851C11.7321 11.9998 11.6578 11.2458 11.8025 10.5184C11.9472 9.79098 12.3044 9.1228 12.8288 8.59835C13.3533 8.0739 14.0215 7.71675 14.7489 7.57206C15.4763 7.42736 16.2303 7.50162 16.9155 7.78545C17.6008 8.06928 18.1864 8.54993 18.5985 9.16661C19.0105 9.7833 19.2305 10.5083 19.2305 11.25C19.2294 12.2442 18.8339 13.1974 18.1309 13.9005C17.4279 14.6035 16.4747 14.9989 15.4805 15Z" fill="#FDB833"/>
</svg>
