<svg width="24" height="25" viewBox="0 0 24 25" fill="none" xmlns="http://www.w3.org/2000/svg">
<path d="M15.06 5.783L20.717 11.44C20.9979 11.7213 21.1557 12.1025 21.1557 12.5C21.1557 12.8975 20.9979 13.2788 20.717 13.56L15.061 19.218C14.7796 19.4994 14.398 19.6575 14 19.6575C13.602 19.6575 13.2204 19.4994 12.939 19.218C12.6576 18.9366 12.4995 18.555 12.4995 18.157C12.4995 17.7591 12.6576 17.3774 12.939 17.096L16.035 14H4.5C4.10218 14 3.72064 13.842 3.43934 13.5607C3.15804 13.2794 3 12.8978 3 12.5C3 12.1022 3.15804 11.7206 3.43934 11.4393C3.72064 11.158 4.10218 11 4.5 11H16.035L12.94 7.904C12.6587 7.62261 12.5008 7.24101 12.5009 6.84315C12.501 6.44529 12.6591 6.06377 12.9405 5.7825C13.2219 5.50124 13.6035 5.34328 14.0014 5.34338C14.3992 5.34347 14.7807 5.50161 15.062 5.783H15.06Z" fill="#E79E03"/>
</svg>
