<svg width="24" height="25" viewBox="0 0 24 25" fill="none" xmlns="http://www.w3.org/2000/svg">
<path d="M12 0.5C5.37256 0.5 0 5.87256 0 12.5C0 19.1274 5.37256 24.5 12 24.5C18.6274 24.5 24 19.1274 24 12.5C24 5.87256 18.6274 0.5 12 0.5ZM12 2.82258C17.3483 2.82258 21.6774 7.15085 21.6774 12.5C21.6774 17.8483 17.3491 22.1774 12 22.1774C6.65168 22.1774 2.32258 17.8491 2.32258 12.5C2.32258 7.15168 6.65085 2.82258 12 2.82258ZM18.7841 9.12582L17.6936 8.02656C17.4678 7.7989 17.1001 7.7974 16.8725 8.02327L10.0329 14.8079L7.13971 11.8913C6.91389 11.6636 6.54624 11.6621 6.31858 11.888L5.21927 12.9784C4.99161 13.2042 4.99011 13.5719 5.21598 13.7996L9.60861 18.2278C9.83444 18.4554 10.2021 18.4569 10.4297 18.2311L18.7808 9.947C19.0084 9.72113 19.0099 9.35348 18.7841 9.12582Z" fill="#B70E0E"/>
</svg>
