<svg width="24" height="25" viewBox="0 0 24 25" fill="none" xmlns="http://www.w3.org/2000/svg">
<path d="M24 12.5C24 19.1274 18.6274 24.5 12 24.5C5.37256 24.5 0 19.1274 0 12.5C0 5.87256 5.37256 0.5 12 0.5C18.6274 0.5 24 5.87256 24 12.5ZM10.612 18.8539L19.5152 9.95068C19.8175 9.64835 19.8175 9.15814 19.5152 8.85582L18.4203 7.76097C18.118 7.4586 17.6278 7.4586 17.3254 7.76097L10.0645 15.0218L6.67456 11.6319C6.37224 11.3296 5.88203 11.3296 5.57966 11.6319L4.48481 12.7267C4.18248 13.0291 4.18248 13.5193 4.48481 13.8216L9.51706 18.8539C9.81944 19.1562 10.3096 19.1562 10.612 18.8539Z" fill="#067811"/>
</svg>
