<svg width="15" height="16" viewBox="0 0 15 16" fill="none" xmlns="http://www.w3.org/2000/svg">
<path d="M5.49992 0.75V2.25H9.49992V0.75H10.8333V2.25H13.4999C13.8681 2.25 14.1666 2.58579 14.1666 3V15C14.1666 15.4142 13.8681 15.75 13.4999 15.75H1.49992C1.13173 15.75 0.833252 15.4142 0.833252 15V3C0.833252 2.58579 1.13173 2.25 1.49992 2.25H4.16659V0.75H5.49992ZM12.8333 8.25H2.16659V14.25H12.8333V8.25ZM6.83325 9.75V12.75H3.49992V9.75H6.83325ZM4.16659 3.75H2.16659V6.75H12.8333V3.75H10.8333V5.25H9.49992V3.75H5.49992V5.25H4.16659V3.75Z" fill="black"/>
</svg>
