<svg width="21" height="21" viewBox="0 0 21 21" fill="none" xmlns="http://www.w3.org/2000/svg">
<path d="M11.6455 0.544617C12.7709 0.546477 13.3412 0.552437 13.834 0.567107L14.0281 0.573447C14.2523 0.581417 14.4735 0.591417 14.7402 0.603917C15.8043 0.653087 16.5302 0.821417 17.1677 1.06892C17.8268 1.32309 18.3835 1.66642 18.9393 2.22226C19.4943 2.77809 19.8377 3.33642 20.0927 3.99392C20.3393 4.63059 20.5077 5.35726 20.5577 6.42142C20.5696 6.68809 20.5792 6.90929 20.5871 7.13353L20.5934 7.32762C20.608 7.82036 20.6147 8.39075 20.6168 9.51619L20.6176 10.2618C20.6177 10.3529 20.6177 10.4469 20.6177 10.5439L20.6176 10.826L20.617 11.5717C20.6151 12.6971 20.6092 13.2675 20.5945 13.7602L20.5881 13.9543C20.5802 14.1786 20.5702 14.3998 20.5577 14.6664C20.5085 15.7306 20.3393 16.4564 20.0927 17.0939C19.8385 17.7531 19.4943 18.3098 18.9393 18.8656C18.3835 19.4206 17.8243 19.7639 17.1677 20.0189C16.5302 20.2656 15.8043 20.4339 14.7402 20.4839C14.4735 20.4958 14.2523 20.5055 14.0281 20.5133L13.834 20.5196C13.3412 20.5343 12.7709 20.5409 11.6455 20.5431L10.8998 20.5439C10.8087 20.5439 10.7147 20.5439 10.6177 20.5439H10.3356L9.58993 20.5432C8.46453 20.5414 7.89415 20.5354 7.4014 20.5207L7.20732 20.5144C6.98307 20.5064 6.76187 20.4964 6.49521 20.4839C5.43104 20.4348 4.70604 20.2656 4.06771 20.0189C3.40937 19.7648 2.85187 19.4206 2.29604 18.8656C1.74021 18.3098 1.39771 17.7506 1.14271 17.0939C0.895208 16.4564 0.727708 15.7306 0.677708 14.6664C0.665828 14.3998 0.656138 14.1786 0.648288 13.9543L0.641998 13.7602C0.627368 13.2675 0.620698 12.6971 0.618538 11.5717L0.618408 9.51619C0.620268 8.39075 0.626218 7.82036 0.640888 7.32762L0.647238 7.13353C0.655208 6.90929 0.665208 6.68809 0.677708 6.42142C0.726868 5.35642 0.895208 4.63142 1.14271 3.99392C1.39687 3.33559 1.74021 2.77809 2.29604 2.22226C2.85187 1.66642 3.41021 1.32392 4.06771 1.06892C4.70521 0.821417 5.43021 0.653917 6.49521 0.603917C6.76187 0.592047 6.98307 0.582357 7.20732 0.574507L7.4014 0.568217C7.89415 0.553577 8.46453 0.546907 9.58993 0.544747L11.6455 0.544617ZM10.6177 5.54392C7.85481 5.54392 5.61771 7.78345 5.61771 10.5439C5.61771 13.3068 7.85724 15.5439 10.6177 15.5439C13.3806 15.5439 15.6177 13.3044 15.6177 10.5439C15.6177 7.78102 13.3781 5.54392 10.6177 5.54392ZM10.6177 7.54392C12.2746 7.54392 13.6177 8.88659 13.6177 10.5439C13.6177 12.2008 12.275 13.5439 10.6177 13.5439C8.96083 13.5439 7.61771 12.2013 7.61771 10.5439C7.61771 8.88699 8.96033 7.54392 10.6177 7.54392ZM15.8677 4.04392C15.1784 4.04392 14.6177 4.60383 14.6177 5.29307C14.6177 5.98232 15.1776 6.54309 15.8677 6.54309C16.5569 6.54309 17.1177 5.98319 17.1177 5.29307C17.1177 4.60383 16.556 4.04306 15.8677 4.04392Z" fill="black"/>
</svg>
